<svg width="120" height="62" viewBox="0 0 120 62" fill="none" xmlns="http://www.w3.org/2000/svg">
<path d="M4.43005 48.3114C4.43005 49.6522 4.73121 50.7305 5.33355 51.5465C5.93588 52.3625 6.82966 52.7707 8.0149 52.7707C8.40349 52.7707 8.76295 52.7609 9.09326 52.7415C9.4235 52.7026 9.69555 52.6638 9.90932 52.6249V44.7266C9.63727 44.5517 9.27785 44.4059 8.83095 44.2894C8.40349 44.1728 7.96632 44.1145 7.51942 44.1145C5.45984 44.1145 4.43005 45.5135 4.43005 48.3114ZM14.2519 55.5977C13.8634 55.7142 13.4165 55.8308 12.9113 55.9474C12.4061 56.0446 11.8718 56.1321 11.3084 56.2097C10.7642 56.2874 10.2008 56.3457 9.6179 56.3846C9.05439 56.4429 8.51036 56.4721 7.98574 56.4721C6.72279 56.4721 5.59585 56.2874 4.60492 55.9183C3.61398 55.5491 2.77849 55.0245 2.09844 54.3444C1.41839 53.645 0.893779 52.8095 0.524606 51.838C0.174857 50.8471 0 49.7395 0 48.5155C0 47.272 0.155434 46.1547 0.466321 45.1638C0.77719 44.1534 1.22409 43.2985 1.807 42.5991C2.38989 41.8995 3.09909 41.3652 3.93458 40.9959C4.7895 40.6269 5.761 40.4423 6.84908 40.4423C7.45141 40.4423 7.98574 40.5006 8.45206 40.6172C8.93782 40.7337 9.4235 40.8989 9.90932 41.1125V34.176L14.2519 33.4766V55.5977ZM22.6608 56.0932H18.3182V40.7628H22.6608V56.0932ZM23.0688 36.3327C23.0688 37.1294 22.8064 37.7608 22.2818 38.2273C21.7766 38.6742 21.1744 38.8975 20.4748 38.8975C19.7754 38.8975 19.1633 38.6742 18.6387 38.2273C18.1335 37.7608 17.881 37.1294 17.881 36.3327C17.881 35.5361 18.1335 34.9143 18.6387 34.4676C19.1633 34.0011 19.7754 33.768 20.4748 33.768C21.1744 33.768 21.7766 34.0011 22.2818 34.4676C22.8064 34.9143 23.0688 35.5361 23.0688 36.3327ZM30.4443 47.9325C30.4443 50.3613 31.4256 51.5756 33.3879 51.5756C33.8349 51.5756 34.2525 51.5173 34.6412 51.4007C35.0298 51.2842 35.3601 51.1482 35.6322 50.9927V44.0562C35.4184 44.0175 35.1657 43.9882 34.8743 43.9689C34.5829 43.93 34.2429 43.9106 33.8542 43.9106C32.7079 43.9106 31.853 44.2894 31.2895 45.0472C30.726 45.805 30.4443 46.7668 30.4443 47.9325ZM39.9748 54.1696C39.9748 56.676 39.3336 58.5317 38.0512 59.7363C36.7882 60.9605 34.8257 61.5724 32.1639 61.5724C31.2312 61.5724 30.2986 61.485 29.3659 61.3102C28.4333 61.1547 27.5687 60.9409 26.7721 60.6689L27.5298 57.0257C28.2098 57.2978 28.9191 57.5116 29.6573 57.6671C30.4152 57.8224 31.2701 57.9002 32.2222 57.9002C33.4656 57.9002 34.3401 57.6282 34.8453 57.084C35.3698 56.5401 35.6322 55.8407 35.6322 54.9856V54.4319C35.1657 54.6455 34.6801 54.8107 34.1749 54.9273C33.6891 55.0245 33.1548 55.0731 32.5719 55.0731C30.4541 55.0731 28.8316 54.4513 27.7046 53.2078C26.5777 51.9449 26.0142 50.1864 26.0142 47.9325C26.0142 46.8057 26.189 45.7856 26.5389 44.8724C26.8886 43.9396 27.3938 43.143 28.0544 42.4825C28.7344 41.8218 29.5603 41.3166 30.5318 40.9669C31.5033 40.5976 32.601 40.4131 33.8252 40.4131C34.3497 40.4131 34.884 40.4423 35.4281 40.5006C35.9916 40.5393 36.5454 40.5976 37.0893 40.6755C37.6335 40.7531 38.1484 40.8503 38.634 40.9669C39.1392 41.0641 39.5861 41.1708 39.9748 41.2874V54.1696ZM48.3904 56.0932H44.0478V40.7628H48.3904V56.0932ZM48.7984 36.3327C48.7984 37.1294 48.5362 37.7608 48.0114 38.2273C47.5062 38.6742 46.904 38.8975 46.2046 38.8975C45.505 38.8975 44.8931 38.6742 44.3683 38.2273C43.8631 37.7608 43.6106 37.1294 43.6106 36.3327C43.6106 35.5361 43.8631 34.9143 44.3683 34.4676C44.8931 34.0011 45.505 33.768 46.2046 33.768C46.904 33.768 47.5062 34.0011 48.0114 34.4676C48.5362 34.9143 48.7984 35.5361 48.7984 36.3327Z" fill="#FF9500"/>
<path d="M58.3314 53.0621C58.7589 53.0621 59.1669 53.0523 59.5555 53.0329C59.9442 53.0135 60.255 52.9843 60.4881 52.9456V49.6522C60.3133 49.6133 60.0511 49.5743 59.7013 49.5356C59.3515 49.4967 59.031 49.4773 58.7395 49.4773C58.3314 49.4773 57.9429 49.5064 57.5737 49.5646C57.2239 49.6036 56.913 49.6909 56.6411 49.827C56.369 49.963 56.1553 50.1475 55.9998 50.3806C55.8445 50.614 55.7666 50.9054 55.7666 51.2551C55.7666 51.9352 55.9901 52.4111 56.437 52.6832C56.9033 52.9357 57.5347 53.0621 58.3314 53.0621ZM57.9817 40.3548C59.2641 40.3548 60.3328 40.5006 61.1877 40.792C62.0426 41.0835 62.7227 41.5011 63.2279 42.0453C63.7525 42.5892 64.1216 43.2499 64.3353 44.0272C64.5491 44.8042 64.656 45.669 64.656 46.621V55.6559C64.0342 55.7921 63.1696 55.9474 62.062 56.1222C60.9546 56.3166 59.6138 56.4138 58.0399 56.4138C57.0491 56.4138 56.1456 56.3263 55.3296 56.1515C54.5329 55.9766 53.843 55.6949 53.2602 55.3062C52.6773 54.8982 52.2304 54.3737 51.9196 53.7323C51.6086 53.0912 51.4531 52.3043 51.4531 51.3717C51.4531 50.4778 51.628 49.7201 51.9779 49.0984C52.347 48.4766 52.8328 47.9811 53.435 47.612C54.0374 47.2427 54.7272 46.9805 55.5044 46.825C56.2815 46.6502 57.088 46.5627 57.9234 46.5627C58.4869 46.5627 58.9824 46.5919 59.4097 46.6502C59.8567 46.6891 60.2162 46.7474 60.4881 46.825V46.417C60.4881 45.6787 60.2647 45.086 59.8179 44.6391C59.371 44.1923 58.5937 43.9689 57.4863 43.9689C56.748 43.9689 56.0193 44.0272 55.3003 44.1437C54.5814 44.2408 53.9598 44.3866 53.435 44.5808L52.8814 41.0835C53.1339 41.0058 53.4447 40.928 53.814 40.8503C54.2026 40.7531 54.6203 40.6755 55.0672 40.6172C55.5141 40.5393 55.9804 40.4811 56.4662 40.4423C56.9713 40.384 57.4765 40.3548 57.9817 40.3548ZM67.8541 48.428C67.8541 47.3206 68.0289 46.2809 68.3788 45.3094C68.7479 44.3186 69.2725 43.4637 69.9526 42.7447C70.6326 42.0063 71.4585 41.4235 72.43 40.9959C73.4014 40.5686 74.5089 40.3548 75.7524 40.3548C76.5686 40.3548 77.3166 40.4325 77.9967 40.5879C78.6767 40.7241 79.3372 40.928 79.9786 41.2L79.0751 44.6683C78.667 44.5128 78.2201 44.3769 77.7343 44.2603C77.2486 44.1437 76.7045 44.0854 76.1021 44.0854C74.8198 44.0854 73.858 44.4838 73.2169 45.2804C72.5951 46.077 72.2842 47.1262 72.2842 48.428C72.2842 49.8075 72.5756 50.8762 73.1586 51.6341C73.7608 52.3918 74.8005 52.7707 76.277 52.7707C76.8017 52.7707 77.3652 52.7221 77.9674 52.6249C78.5698 52.5277 79.1237 52.3722 79.6287 52.1586L80.2408 55.7142C79.7356 55.928 79.1041 56.1125 78.3464 56.268C77.5887 56.4235 76.7531 56.5012 75.8399 56.5012C74.4409 56.5012 73.2363 56.2973 72.2259 55.8891C71.2155 55.4617 70.3801 54.8885 69.7194 54.1696C69.0783 53.4506 68.6021 52.6055 68.2913 51.6341C67.9999 50.643 67.8541 49.5743 67.8541 48.428ZM81.6867 48.428C81.6867 47.3206 81.8615 46.2809 82.2112 45.3094C82.5805 44.3186 83.1051 43.4637 83.7851 42.7447C84.4652 42.0063 85.2909 41.4235 86.2625 40.9959C87.234 40.5686 88.3415 40.3548 89.585 40.3548C90.401 40.3548 91.149 40.4325 91.8291 40.5879C92.5091 40.7241 93.1698 40.928 93.811 41.2L92.9075 44.6683C92.4995 44.5128 92.0525 44.3769 91.5669 44.2603C91.0811 44.1437 90.5371 44.0854 89.9347 44.0854C88.6524 44.0854 87.6906 44.4838 87.0493 45.2804C86.4275 46.077 86.1167 47.1262 86.1167 48.428C86.1167 49.8075 86.4082 50.8762 86.991 51.6341C87.5934 52.3918 88.6329 52.7707 90.1096 52.7707C90.6341 52.7707 91.1976 52.7221 91.8 52.6249C92.4024 52.5277 92.9561 52.3722 93.4613 52.1586L94.0734 55.7142C93.5681 55.928 92.9367 56.1125 92.179 56.268C91.4211 56.4235 90.5857 56.5012 89.6725 56.5012C88.2735 56.5012 87.0689 56.2973 86.0584 55.8891C85.048 55.4617 84.2125 54.8885 83.552 54.1696C82.9108 53.4506 82.4347 52.6055 82.1239 51.6341C81.8325 50.643 81.6867 49.5743 81.6867 48.428ZM95.5193 48.5446C95.5193 47.1844 95.7232 45.9992 96.1312 44.989C96.5587 43.959 97.1125 43.1041 97.7926 42.424C98.4726 41.7441 99.2497 41.2291 100.124 40.8794C101.018 40.5297 101.931 40.3548 102.864 40.3548C105.04 40.3548 106.759 41.0252 108.022 42.3658C109.285 43.6871 109.917 45.6398 109.917 48.2241C109.917 48.4766 109.907 48.7583 109.888 49.0691C109.868 49.3607 109.849 49.6229 109.829 49.8561H99.9784C100.076 50.7499 100.493 51.459 101.232 51.9838C101.97 52.5083 102.961 52.7707 104.205 52.7707C105.001 52.7707 105.778 52.7026 106.536 52.5666C107.313 52.4111 107.945 52.2266 108.431 52.0128L109.013 55.5394C108.78 55.6559 108.469 55.7725 108.081 55.8891C107.692 56.0057 107.255 56.1029 106.769 56.1805C106.303 56.2777 105.798 56.3555 105.254 56.4138C104.71 56.4721 104.166 56.5012 103.621 56.5012C102.242 56.5012 101.037 56.2973 100.008 55.8891C98.9972 55.4811 98.152 54.9273 97.4719 54.2279C96.8112 53.5089 96.3159 52.6638 95.9855 51.6923C95.6746 50.7207 95.5193 49.6715 95.5193 48.5446ZM105.72 46.8833C105.701 46.5141 105.633 46.1547 105.516 45.805C105.419 45.4552 105.254 45.1443 105.021 44.8724C104.807 44.6003 104.525 44.3769 104.175 44.202C103.845 44.0272 103.427 43.9396 102.922 43.9396C102.436 43.9396 102.019 44.0272 101.669 44.202C101.319 44.3573 101.028 44.5711 100.795 44.8432C100.561 45.1152 100.377 45.4357 100.241 45.805C100.124 46.1547 100.037 46.5141 99.9784 46.8833H105.72ZM119.389 56.3846C118.126 56.3652 117.096 56.2291 116.299 55.9766C115.522 55.7239 114.9 55.3742 114.434 54.9273C113.987 54.461 113.676 53.9072 113.501 53.2661C113.346 52.6055 113.268 51.8672 113.268 51.051V34.176L117.611 33.4766V50.1767C117.611 50.5654 117.64 50.9151 117.698 51.2259C117.756 51.5369 117.863 51.7991 118.019 52.0128C118.194 52.2266 118.436 52.4015 118.747 52.5374C119.058 52.6735 119.476 52.7609 120.001 52.7998L119.389 56.3846Z" fill="#0B00AE"/>
<path d="M77.6763 5.57058C77.6763 2.49403 75.1823 0 72.1057 0C69.0292 0 66.5352 2.49403 66.5352 5.57058V22.2822C66.5352 25.3588 69.0292 27.8528 72.1057 27.8528C75.1823 27.8528 77.6763 25.3588 77.6763 22.2822V5.57058Z" fill="#0B00AE"/>
<path d="M72.1076 9.74454C74.415 9.74454 76.2856 7.87401 76.2856 5.5666C76.2856 3.2592 74.415 1.38867 72.1076 1.38867C69.8002 1.38867 67.9297 3.2592 67.9297 5.5666C67.9297 7.87401 69.8002 9.74454 72.1076 9.74454Z" fill="#FF9500"/>
<path d="M65.1411 13.9339C65.1411 10.8573 62.6471 8.36328 59.5706 8.36328C56.494 8.36328 54 10.8573 54 13.9339V22.2897C54 25.3663 56.494 27.8603 59.5706 27.8603C62.6471 27.8603 65.1411 25.3663 65.1411 22.2897V13.9339Z" fill="#0B00AE"/>
<path d="M52.606 22.2913C52.606 19.2147 50.112 16.7207 47.0354 16.7207C43.9589 16.7207 41.4648 19.2147 41.4648 22.2913C41.4648 25.3678 43.9589 27.8618 47.0354 27.8618C50.112 27.8618 52.606 25.3678 52.606 22.2913Z" fill="#0B00AE"/>
<path d="M59.5725 18.1078C61.8799 18.1078 63.7504 16.2373 63.7504 13.9299C63.7504 11.6225 61.8799 9.75195 59.5725 9.75195C57.2651 9.75195 55.3945 11.6225 55.3945 13.9299C55.3945 16.2373 57.2651 18.1078 59.5725 18.1078Z" fill="#FF9500"/>
<path d="M47.0412 26.4652C49.3486 26.4652 51.2191 24.5947 51.2191 22.2873C51.2191 19.9799 49.3486 18.1094 47.0412 18.1094C44.7338 18.1094 42.8633 19.9799 42.8633 22.2873C42.8633 24.5947 44.7338 26.4652 47.0412 26.4652Z" fill="#FF9500"/>
</svg>
