<svg width="24" height="24" viewBox="0 0 24 24" fill="none" xmlns="http://www.w3.org/2000/svg">
<g id="Component 1">
<g clip-path="url(#clip0_11_1645)">
<path id="Vector" d="M21 12.0047C21 11.4553 20.5547 11.0098 20.0053 11.0094L4.00028 11.0006C3.44793 11.0002 3 11.4479 3 12.0003C3 12.5524 3.44759 13 3.99972 13H20.0047C20.5544 13 21 12.5544 21 12.0047ZM3 17C3 16.4477 3.44772 16 4 16H14C14.5523 16 15 16.4477 15 17C15 17.5523 14.5523 18 14 18H4C3.44772 18 3 17.5523 3 17ZM21 7.00028C21 6.44784 20.5522 6 19.9997 6H4.00472C3.44983 6 3 6.44983 3 7.00472C3 7.55983 3.45017 8.00975 4.00528 8.00944L20.0003 8.00056C20.5525 8.00025 21 7.5525 21 7.00028Z" fill="#1C1C1C"/>
</g>
</g>
<defs>
<clipPath id="clip0_11_1645">
<rect width="24" height="24" rx="12" fill="white"/>
</clipPath>
</defs>
</svg>
