<svg width="165" height="184" viewBox="0 0 165 184" fill="none" xmlns="http://www.w3.org/2000/svg">
<path fill-rule="evenodd" clip-rule="evenodd" d="M77.647 27.3001C69.0482 27.3001 61.2642 30.7851 55.6302 36.4182C49.9962 42.0531 46.5121 49.837 46.5121 58.4359C46.5121 67.0339 49.9962 74.8196 55.6302 80.4527C61.2642 86.0867 69.0482 89.5717 77.647 89.5717C86.2459 89.5717 94.0299 86.0867 99.6639 80.4527C105.299 74.8187 108.783 67.0339 108.783 58.4359C108.783 49.837 105.298 42.0531 99.6639 36.4182C94.0299 30.7851 86.2468 27.3001 77.647 27.3001ZM42.5423 23.3303C51.5272 14.3455 63.9394 8.78885 77.647 8.78885C91.3556 8.78885 103.767 14.3455 112.752 23.3303C121.737 32.3152 127.294 44.7274 127.294 58.4359C127.294 72.1444 121.737 84.5566 112.752 93.5406C103.767 102.525 91.3547 108.083 77.647 108.083C63.9394 108.083 51.5263 102.525 42.5423 93.5406C33.5566 84.5557 28 72.1435 28 58.4359C28.0009 44.7274 33.5566 32.3161 42.5423 23.3303Z" fill="#3A83F9"/>
<path fill-rule="evenodd" clip-rule="evenodd" d="M69.054 42.8835C69.054 40.0544 71.3474 37.7618 74.1756 37.7618C77.0055 37.7618 79.299 40.0544 79.299 42.8835L79.4022 78.9707C79.4022 81.7997 77.1078 84.0924 74.2805 84.0924C71.4515 84.0924 69.1588 81.7989 69.1588 78.9707L69.054 42.8835Z" fill="#0030AD"/>
<path fill-rule="evenodd" clip-rule="evenodd" d="M84.115 39.6934C84.115 36.8652 86.4076 34.5717 89.2367 34.5717C92.0657 34.5717 94.3583 36.8652 94.3583 39.6934L94.4623 78.9699C94.4623 81.7989 92.168 84.0915 89.3407 84.0915C86.5108 84.0915 84.2181 81.798 84.2181 78.9699L84.115 39.6934Z" fill="#0030AD"/>
<path fill-rule="evenodd" clip-rule="evenodd" d="M54.7603 51.0972C54.7603 48.2682 57.0538 45.9747 59.8828 45.9747C62.7118 45.9747 65.0053 48.2682 65.0053 51.0972L65.1085 78.9699C65.1085 81.7989 62.815 84.0915 59.986 84.0915C57.1578 84.0915 54.8643 81.798 54.8643 78.9699L54.7603 51.0972Z" fill="#0030AD"/>
<path fill-rule="evenodd" clip-rule="evenodd" d="M80.9159 27.6268L108.543 0L136.17 27.6268H119.225C118.599 48.551 118.406 70.9315 98.9209 84.5892C82.8974 95.8203 52.9513 91.2419 48.5173 69.6128C61.6611 87.0487 89.5088 83.4949 96.8569 61.4386C100.252 51.2528 99.1908 38.9825 98.2392 27.6276H80.9159V27.6268Z" fill="#0030AD"/>
<path d="M0 172.334V137.58H23.011V143.639H7.3479V151.92H21.4837V157.978H7.3479V172.334H0Z" fill="#0030AD"/>
<path d="M27.8177 172.334V146.269H35.0468V172.334H27.8177ZM31.4492 142.909C30.3744 142.909 29.4524 142.553 28.6831 141.84C27.9251 141.116 27.5461 140.25 27.5461 139.243C27.5461 138.248 27.9251 137.394 28.6831 136.681C29.4524 135.957 30.3744 135.595 31.4492 135.595C32.5239 135.595 33.4403 135.957 34.1983 136.681C34.9676 137.394 35.3522 138.248 35.3522 139.243C35.3522 140.25 34.9676 141.116 34.1983 141.84C33.4403 142.553 32.5239 142.909 31.4492 142.909Z" fill="#0030AD"/>
<path d="M48.0668 157.265V172.334H40.8377V146.269H47.7274V150.868H48.0329C48.6098 149.352 49.5771 148.153 50.9347 147.27C52.2923 146.376 53.9383 145.93 55.8729 145.93C57.683 145.93 59.2612 146.325 60.6075 147.117C61.9537 147.909 63.0002 149.041 63.7469 150.511C64.4935 151.971 64.8669 153.713 64.8669 155.738V172.334H57.6377V157.028C57.6491 155.433 57.2418 154.188 56.4159 153.294C55.5901 152.389 54.4531 151.937 53.005 151.937C52.0321 151.937 51.1723 152.146 50.4256 152.565C49.6902 152.983 49.1133 153.594 48.6947 154.397C48.2874 155.189 48.0781 156.145 48.0668 157.265Z" fill="#0030AD"/>
<path d="M66.7434 138.179H74.9737L82.8986 153.146H83.238L91.1629 138.179H99.3932L86.7168 160.647V172.933H79.4198V160.647L66.7434 138.179Z" fill="#3A83F9"/>
<path d="M109.588 173.442C106.952 173.442 104.672 172.882 102.749 171.762C100.837 170.63 99.3607 169.058 98.3199 167.044C97.2791 165.019 96.7586 162.672 96.7586 160.002C96.7586 157.309 97.2791 154.956 98.3199 152.942C99.3607 150.917 100.837 149.345 102.749 148.225C104.672 147.093 106.952 146.528 109.588 146.528C112.224 146.528 114.498 147.093 116.41 148.225C118.333 149.345 119.815 150.917 120.856 152.942C121.896 154.956 122.417 157.309 122.417 160.002C122.417 162.672 121.896 165.019 120.856 167.044C119.815 169.058 118.333 170.63 116.41 171.762C114.498 172.882 112.224 173.442 109.588 173.442ZM109.622 167.842C110.821 167.842 111.822 167.502 112.625 166.824C113.429 166.133 114.034 165.195 114.441 164.007C114.86 162.819 115.069 161.467 115.069 159.951C115.069 158.435 114.86 157.083 114.441 155.895C114.034 154.707 113.429 153.768 112.625 153.078C111.822 152.388 110.821 152.043 109.622 152.043C108.411 152.043 107.393 152.388 106.567 153.078C105.753 153.768 105.136 154.707 104.717 155.895C104.31 157.083 104.107 158.435 104.107 159.951C104.107 161.467 104.31 162.819 104.717 164.007C105.136 165.195 105.753 166.133 106.567 166.824C107.393 167.502 108.411 167.842 109.622 167.842Z" fill="#3A83F9"/>
<path d="M138.861 183.25C136.519 183.25 134.511 182.928 132.836 182.283C131.173 181.65 129.85 180.784 128.865 179.687C127.881 178.589 127.242 177.356 126.948 175.987L133.634 175.088C133.838 175.608 134.16 176.095 134.601 176.547C135.042 177 135.625 177.362 136.349 177.633C137.084 177.916 137.978 178.058 139.03 178.058C140.603 178.058 141.898 177.673 142.916 176.904C143.946 176.146 144.461 174.873 144.461 173.085V168.317H144.155C143.838 169.041 143.363 169.725 142.73 170.37C142.096 171.015 141.282 171.541 140.286 171.948C139.29 172.356 138.103 172.559 136.722 172.559C134.765 172.559 132.983 172.107 131.377 171.202C129.782 170.285 128.509 168.888 127.559 167.01C126.62 165.121 126.15 162.734 126.15 159.849C126.15 156.896 126.631 154.43 127.593 152.45C128.554 150.47 129.833 148.988 131.428 148.004C133.034 147.02 134.794 146.528 136.705 146.528C138.165 146.528 139.387 146.777 140.371 147.274C141.355 147.761 142.147 148.372 142.747 149.107C143.358 149.831 143.827 150.544 144.155 151.245H144.427V146.867H151.605V173.187C151.605 175.405 151.062 177.26 149.976 178.753C148.89 180.247 147.385 181.367 145.462 182.113C143.55 182.871 141.349 183.25 138.861 183.25ZM139.013 167.129C140.179 167.129 141.163 166.841 141.966 166.264C142.781 165.675 143.403 164.838 143.833 163.752C144.274 162.655 144.495 161.342 144.495 159.815C144.495 158.288 144.28 156.964 143.85 155.844C143.42 154.713 142.798 153.836 141.983 153.214C141.168 152.592 140.179 152.281 139.013 152.281C137.825 152.281 136.824 152.603 136.01 153.248C135.195 153.881 134.579 154.764 134.16 155.895C133.741 157.026 133.532 158.333 133.532 159.815C133.532 161.32 133.741 162.621 134.16 163.718C134.59 164.804 135.206 165.647 136.01 166.247C136.824 166.835 137.825 167.129 139.013 167.129Z" fill="#3A83F9"/>
<path d="M157.358 172.933V146.867H164.587V172.933H157.358ZM160.989 143.507C159.914 143.507 158.992 143.151 158.223 142.438C157.465 141.714 157.086 140.849 157.086 139.842C157.086 138.846 157.465 137.992 158.223 137.279C158.992 136.555 159.914 136.193 160.989 136.193C162.064 136.193 162.98 136.555 163.738 137.279C164.508 137.992 164.892 138.846 164.892 139.842C164.892 140.849 164.508 141.714 163.738 142.438C162.98 143.151 162.064 143.507 160.989 143.507Z" fill="#3A83F9"/>
</svg>
