<svg width="40" height="40" viewBox="0 0 40 40" fill="none" xmlns="http://www.w3.org/2000/svg">
<g id="Group 13">
<g id="Group 9">
<g id="Group 48095615">
<g id="OBJECTS">
<g id="Group">
<g id="Group_2">
<g id="Group_3">
<path id="Vector" fill-rule="evenodd" clip-rule="evenodd" d="M17.9524 9.87177C14.8431 9.87177 12.0284 11.1319 9.99112 13.1689C7.95386 15.2065 6.694 18.0211 6.694 21.1305C6.694 24.2396 7.95386 27.0549 9.99112 29.0918C12.0284 31.1291 14.8431 32.3893 17.9524 32.3893C21.0618 32.3893 23.8765 31.1291 25.9138 29.0918C27.9513 27.0546 29.2112 24.2396 29.2112 21.1305C29.2112 18.0211 27.951 15.2065 25.9138 13.1689C23.8765 11.1319 21.0621 9.87177 17.9524 9.87177ZM5.25853 8.4363C8.50747 5.18736 12.9957 3.17807 17.9524 3.17807C22.9095 3.17807 27.3974 5.18736 30.6463 8.4363C33.8956 11.6852 35.9049 16.1735 35.9049 21.1305C35.9049 26.0875 33.8956 30.5758 30.6463 33.8244C27.3974 37.0733 22.9091 39.0829 17.9524 39.0829C12.9957 39.0829 8.50716 37.0733 5.25853 33.8244C2.00929 30.5755 0 26.0872 0 21.1305C0.000310843 16.1735 2.00929 11.6855 5.25853 8.4363Z" fill="#3A83F9"/>
<g id="Group_4">
<path id="Vector_2" fill-rule="evenodd" clip-rule="evenodd" d="M14.8452 15.5067C14.8452 14.4837 15.6745 13.6547 16.6972 13.6547C17.7205 13.6547 18.5498 14.4837 18.5498 15.5067L18.5871 28.5559C18.5871 29.5789 17.7575 30.4079 16.7351 30.4079C15.7122 30.4079 14.8831 29.5786 14.8831 28.5559L14.8452 15.5067Z" fill="#0030AD"/>
<path id="Vector_3" fill-rule="evenodd" clip-rule="evenodd" d="M20.2913 14.3532C20.2913 13.3305 21.1203 12.5012 22.1433 12.5012C23.1663 12.5012 23.9953 13.3305 23.9953 14.3532L24.0329 28.5556C24.0329 29.5786 23.2032 30.4076 22.1809 30.4076C21.1576 30.4076 20.3286 29.5783 20.3286 28.5556L20.2913 14.3532Z" fill="#0030AD"/>
<path id="Vector_4" fill-rule="evenodd" clip-rule="evenodd" d="M9.67651 18.4768C9.67651 17.4538 10.5058 16.6245 11.5288 16.6245C12.5518 16.6245 13.3811 17.4538 13.3811 18.4768L13.4185 28.5556C13.4185 29.5786 12.5891 30.4076 11.5661 30.4076C10.5435 30.4076 9.71413 29.5783 9.71413 28.5556L9.67651 18.4768Z" fill="#0030AD"/>
</g>
<path id="Vector_5" fill-rule="evenodd" clip-rule="evenodd" d="M19.1346 9.98988L29.1244 0L39.1146 9.98988H32.9873C32.7607 17.5561 32.6911 25.6489 25.6452 30.5876C19.8511 34.6488 9.02252 32.9932 7.41919 25.1721C12.172 31.4769 22.2417 30.1919 24.8988 22.2163C26.1267 18.5331 25.7428 14.0961 25.3987 9.99019H19.1346V9.98988Z" fill="#0030AD"/>
</g>
</g>
</g>
</g>
</g>
</g>
</g>
</svg>
