<svg width="296" height="221" viewBox="0 0 296 221" fill="none" xmlns="http://www.w3.org/2000/svg">
<path d="M295.387 194.14H0.160156V194.287H295.387V194.14Z" fill="#EBEBEB"/>
<path d="M186.549 198.163H171.516V198.311H186.549V198.163Z" fill="#EBEBEB"/>
<path d="M269.076 201.359H233.454V201.507H269.076V201.359Z" fill="#EBEBEB"/>
<path d="M168.316 198.234H131.513V198.382H168.316V198.234Z" fill="#EBEBEB"/>
<path d="M107.646 202.653H99.9463V202.801H107.646V202.653Z" fill="#EBEBEB"/>
<path d="M150.188 202.653H115.127V202.801H150.188V202.653Z" fill="#EBEBEB"/>
<path d="M53.8377 200.16H31.1348V200.308H53.8377V200.16Z" fill="#EBEBEB"/>
<path d="M140.098 167.791H26.0873C25.1941 167.789 24.3381 167.433 23.7071 166.801C23.0761 166.168 22.7217 165.311 22.7217 164.418V4.05969C22.7295 3.17115 23.0873 2.32157 23.7174 1.69548C24.3476 1.06938 25.1992 0.717342 26.0873 0.71582H140.098C140.992 0.71582 141.85 1.07123 142.482 1.70387C143.114 2.3365 143.469 3.19454 143.469 4.08922V164.418C143.469 165.312 143.114 166.17 142.482 166.803C141.85 167.436 140.992 167.791 140.098 167.791ZM26.0873 0.833979C25.2333 0.835544 24.4148 1.17608 23.8115 1.78085C23.2081 2.38562 22.8693 3.2052 22.8693 4.05969V164.418C22.8693 165.272 23.2081 166.092 23.8115 166.696C24.4148 167.301 25.2333 167.642 26.0873 167.643H140.098C140.952 167.642 141.771 167.301 142.376 166.697C142.98 166.092 143.32 165.273 143.322 164.418V4.05969C143.32 3.20465 142.98 2.38509 142.376 1.78049C141.771 1.17589 140.952 0.83554 140.098 0.833979H26.0873Z" fill="#EBEBEB"/>
<path d="M267.819 167.791H153.802C152.908 167.789 152.052 167.433 151.42 166.801C150.788 166.169 150.432 165.312 150.431 164.418V4.05969C150.44 3.17062 150.799 2.32104 151.43 1.69511C152.061 1.06918 152.914 0.717326 153.802 0.71582H267.819C268.706 0.718895 269.556 1.07162 270.185 1.69755C270.814 2.32348 271.171 3.17217 271.178 4.05969V164.418C271.178 165.31 270.825 166.166 270.195 166.799C269.565 167.431 268.711 167.788 267.819 167.791ZM153.802 0.833979C152.948 0.83554 152.129 1.17589 151.524 1.78049C150.92 2.38509 150.58 3.20465 150.578 4.05969V164.418C150.58 165.273 150.92 166.092 151.524 166.697C152.129 167.301 152.948 167.642 153.802 167.643H267.819C268.673 167.642 269.492 167.301 270.097 166.697C270.701 166.092 271.041 165.273 271.042 164.418V4.05969C271.041 3.20465 270.701 2.38509 270.097 1.78049C269.492 1.17589 268.673 0.83554 267.819 0.833979H153.802Z" fill="#EBEBEB"/>
<path d="M115.865 142.901H76.6588L74.2793 115.43H113.485L115.865 142.901Z" fill="#E6E6E6"/>
<path d="M117.896 142.901H78.6901L76.3105 115.43H115.517L117.896 142.901Z" fill="#F0F0F0"/>
<path d="M84.052 136.999L82.7412 121.325H110.156L111.467 136.999H84.052Z" fill="white"/>
<path d="M124.681 142.901H120.081V194.14H124.681V142.901Z" fill="#E6E6E6"/>
<path d="M126.134 142.901H122.938V194.14H126.134V142.901Z" fill="#F0F0F0"/>
<path d="M81.6077 148.555H126.134V142.901H81.6077V148.555Z" fill="#F0F0F0"/>
<path d="M83.1778 148.555H78.5781V194.14H83.1778V148.555Z" fill="#E6E6E6"/>
<path d="M84.6308 148.555H81.4355V194.14H84.6308V148.555Z" fill="#F0F0F0"/>
<path d="M50.4375 148.555H45.8379V194.14H50.4375V148.555Z" fill="#E6E6E6"/>
<path d="M51.8906 148.555H48.6953V194.14H51.8906V148.555Z" fill="#F0F0F0"/>
<path d="M95.5713 148.555H90.9717V194.14H95.5713V148.555Z" fill="#E6E6E6"/>
<path d="M97.0185 148.555H93.8232V194.14H97.0185V148.555Z" fill="#F0F0F0"/>
<path d="M81.6075 142.901H45.8379V148.555H81.6075V142.901Z" fill="#E6E6E6"/>
<path d="M214.991 15.1367H76.6299V92.211H214.991V15.1367Z" fill="#E0E0E0"/>
<path d="M222.589 15.1367H77.3262V92.211H222.589V15.1367Z" fill="#F5F5F5"/>
<path d="M220.216 89.8361V17.5117L79.6998 17.5117V89.8361L220.216 89.8361Z" fill="white"/>
<path d="M136.597 89.8361L163.126 17.5117H119.344L92.8145 89.8361H136.597Z" fill="#F5F5F5"/>
<path d="M178.737 89.8361L205.266 17.5117H172.236L145.707 89.8361H178.737Z" fill="#F5F5F5"/>
<path d="M258.844 120.527H247.082V194.14H258.844V120.527Z" fill="#E6E6E6"/>
<path d="M255.749 194.14H258.843V188.475H252.508L255.749 194.14Z" fill="#FAFAFA"/>
<path d="M150.4 120.527H138.639V194.14H150.4V120.527Z" fill="#E6E6E6"/>
<path d="M258.844 120.527H147.703V192.61H258.844V120.527Z" fill="#FAFAFA"/>
<path d="M256.742 143.787H149.811V123.429H256.742V143.787ZM150.401 143.197H256.151V124.019H150.401V143.197Z" fill="#E6E6E6"/>
<path d="M237.918 133.312H170.706C167.589 133.312 164.583 130.795 162.44 126.4L162.239 125.98H246.379L246.178 126.4C244.017 130.795 241.065 133.312 237.918 133.312ZM163.208 126.554C165.203 130.47 167.931 132.704 170.706 132.704H237.918C240.705 132.704 243.421 130.47 245.416 126.554H163.208Z" fill="#E6E6E6"/>
<path d="M150.797 194.14H147.703V188.475H154.039L150.797 194.14Z" fill="#FAFAFA"/>
<path d="M256.742 166.728H149.811V146.393H256.742V166.728ZM150.401 166.137H256.151V146.983H150.401V166.137Z" fill="#E6E6E6"/>
<path d="M237.918 156.276H170.706C167.589 156.276 164.583 153.753 162.44 149.364L162.239 148.938H246.379L246.178 149.364C244.017 153.73 241.065 156.276 237.918 156.276ZM163.208 149.529C165.203 153.446 167.931 155.685 170.706 155.685H237.918C240.705 155.685 243.421 153.446 245.416 149.529H163.208Z" fill="#E6E6E6"/>
<path d="M256.742 189.709H149.811V169.351H256.742V189.709ZM150.401 189.118H256.151V169.941H150.401V189.118Z" fill="#E6E6E6"/>
<path d="M237.918 179.234H170.706C167.589 179.234 164.583 176.717 162.44 172.328L162.239 171.902H246.379L246.178 172.328C244.017 176.717 241.065 179.234 237.918 179.234ZM163.208 172.493C165.203 176.41 167.931 178.643 170.706 178.643H237.918C240.705 178.643 243.421 176.41 245.416 172.493H163.208Z" fill="#E6E6E6"/>
<path d="M71.593 130.264V131.693H70.6837L69.9279 142.901H58.8037L58.0539 131.693H57.1387V130.264H71.593Z" fill="#E6E6E6"/>
<path d="M67.9322 102.456C67.0229 95.7797 58.0184 93.8773 46.5932 93.6292C35.7229 93.3988 32.2393 89.5527 32.2393 89.5527C32.2393 89.5527 32.2747 105.132 47.9394 110.78C62.8129 116.132 68.8474 109.143 67.9322 102.456Z" fill="#E6E6E6"/>
<path d="M62.3824 117.585C62.5714 114.844 66.9525 109.799 77.4921 112.091C85.109 113.751 87.9431 109.799 87.9431 109.799C87.9431 109.799 87.2346 120.953 75.7798 124.303C64.8978 127.487 62.0459 122.418 62.3824 117.585Z" fill="#E6E6E6"/>
<path d="M64.7853 134.47C64.8446 134.471 64.9034 134.458 64.9574 134.434C65.0115 134.409 65.0595 134.373 65.0982 134.328C65.8599 133.425 65.234 131.262 64.372 128.267C63.2619 124.427 61.8802 119.641 63.0493 116.174C63.6974 114.342 64.4545 112.55 65.3167 110.809C66.97 107.312 68.3989 104.31 67.2061 101.132C67.1875 101.081 67.1591 101.035 67.1225 100.996C67.0858 100.956 67.0417 100.924 66.9927 100.902C66.9437 100.88 66.8908 100.867 66.8369 100.865C66.7831 100.864 66.7295 100.873 66.6791 100.892C66.6288 100.911 66.5827 100.94 66.5436 100.977C66.5045 101.014 66.4732 101.058 66.4514 101.108C66.4295 101.157 66.4177 101.21 66.4165 101.264C66.4153 101.318 66.4248 101.371 66.4445 101.422C67.5132 104.251 66.2201 106.993 64.5786 110.467C63.7055 112.236 62.9366 114.054 62.2758 115.914C61.03 119.624 62.4471 124.545 63.5867 128.491C64.2598 130.855 64.9565 133.218 64.4782 133.809C64.4403 133.849 64.4112 133.898 64.3929 133.95C64.3746 134.003 64.3674 134.059 64.3719 134.114C64.3763 134.17 64.3923 134.224 64.4187 134.273C64.4451 134.322 64.4815 134.365 64.5255 134.399C64.6009 134.453 64.693 134.478 64.7853 134.47Z" fill="#E6E6E6"/>
<path d="M147.773 220.82C211 220.82 262.256 217.826 262.256 214.132C262.256 210.439 211 207.444 147.773 207.444C84.5458 207.444 33.29 210.439 33.29 214.132C33.29 217.826 84.5458 220.82 147.773 220.82Z" fill="#F5F5F5"/>
<path d="M147.75 181.527H63.9052L59.3174 46.6084H143.162L147.75 181.527Z" fill="#0030AD"/>
<path d="M151.936 177.338H68.0918L63.498 42.4199H147.342L151.936 177.338Z" fill="#0030AD"/>
<path opacity="0.3" d="M151.936 177.338H68.0918L63.498 42.4199H147.342L151.936 177.338Z" fill="white"/>
<path d="M123.844 97.9382C132.821 88.8008 132.439 73.8596 122.991 64.566C113.542 55.2725 98.6053 55.1459 89.628 64.2834C80.6506 73.4208 81.0326 88.362 90.4811 97.6556C99.9296 106.949 114.867 107.076 123.844 97.9382Z" fill="#0030AD"/>
<path d="M126.204 81.1166C126.324 84.3315 125.623 87.524 124.167 90.392C122.594 93.4828 120.193 96.0741 117.231 97.8752C114.269 99.6764 110.864 100.616 107.398 100.589C103.85 100.57 100.37 99.6176 97.3069 97.8279C94.2434 96.0381 91.7042 93.4737 89.944 90.392C88.3027 87.5681 87.3858 84.3815 87.2751 81.1166C87.1662 78.5852 87.5728 76.0579 88.4702 73.6885C89.3676 71.3191 90.7371 69.157 92.4955 67.3336C94.2538 65.5101 96.3643 64.0634 98.6987 63.0813C101.033 62.0992 103.543 61.6022 106.075 61.6206C111.292 61.6575 116.294 63.7038 120.042 67.3344C123.791 70.965 125.997 75.9008 126.204 81.1166Z" fill="white"/>
<path opacity="0.6" d="M124.155 90.3915C122.583 93.4823 120.181 96.0736 117.219 97.8747C114.257 99.6759 110.852 100.616 107.386 100.589C103.839 100.569 100.359 99.6171 97.2955 97.8274C94.2321 96.0376 91.6928 93.4732 89.9326 90.3915C94.9262 86.9851 100.835 85.1743 106.879 85.1985C113.02 85.2118 119.024 87.0164 124.155 90.3915Z" fill="#0030AD"/>
<path opacity="0.6" d="M112.802 80.6304C116.103 77.2704 115.962 71.7764 112.488 68.3591C109.014 64.9418 103.521 64.8952 100.22 68.2552C96.9192 71.6151 97.0596 77.1091 100.534 80.5265C104.008 83.9438 109.501 83.9903 112.802 80.6304Z" fill="#0030AD"/>
<path d="M135.09 128.48H81.6072L81.2471 117.846H134.73L135.09 128.48Z" fill="white"/>
<path d="M135.74 147.486H82.2508L81.8906 136.852H135.38L135.74 147.486Z" fill="white"/>
<path d="M115.098 138.317L102.208 140.089C102.085 140.103 101.966 140.142 101.859 140.204C101.752 140.267 101.659 140.35 101.586 140.45C101.513 140.55 101.461 140.664 101.434 140.785C101.407 140.906 101.405 141.031 101.429 141.152L103.123 149.796C103.179 150.049 103.327 150.273 103.539 150.423C103.751 150.573 104.011 150.638 104.269 150.605L117.158 148.833C117.281 148.817 117.399 148.777 117.506 148.713C117.612 148.65 117.704 148.566 117.777 148.466C117.849 148.366 117.9 148.252 117.927 148.131C117.954 148.01 117.955 147.885 117.932 147.763L116.243 139.12C116.188 138.867 116.039 138.644 115.827 138.495C115.615 138.346 115.354 138.282 115.098 138.317ZM111.395 147.072L109.034 147.385L108.803 144.597C108.56 144.491 108.345 144.329 108.178 144.123C108.01 143.918 107.895 143.675 107.841 143.415C107.798 143.214 107.797 143.006 107.839 142.804C107.881 142.603 107.965 142.412 108.085 142.245C108.205 142.078 108.359 141.938 108.537 141.835C108.714 141.731 108.912 141.665 109.116 141.643C109.536 141.589 109.96 141.694 110.306 141.938C110.651 142.182 110.892 142.547 110.982 142.96C111.033 143.21 111.018 143.469 110.937 143.71C110.856 143.952 110.713 144.168 110.522 144.337L111.395 147.072Z" fill="#0030AD"/>
<path d="M113.822 137.85C113.594 137.879 113.364 137.822 113.176 137.69C112.988 137.558 112.856 137.36 112.807 137.135L112.641 136.291C112.405 135.138 111.759 134.11 110.823 133.397C109.887 132.684 108.725 132.335 107.552 132.415C106.959 132.449 106.381 132.61 105.857 132.887C105.332 133.164 104.874 133.551 104.512 134.021C104.15 134.491 103.893 135.034 103.76 135.612C103.626 136.19 103.618 136.79 103.737 137.372L103.926 138.347C103.948 138.455 103.947 138.566 103.924 138.674C103.9 138.781 103.855 138.883 103.79 138.972C103.724 139.061 103.642 139.135 103.546 139.191C103.451 139.246 103.345 139.28 103.235 139.292C103.007 139.324 102.775 139.268 102.587 139.135C102.398 139.002 102.267 138.803 102.22 138.577L102.06 137.756C101.898 136.988 101.893 136.196 102.044 135.426C102.196 134.657 102.502 133.926 102.943 133.277C103.384 132.629 103.952 132.076 104.612 131.653C105.272 131.23 106.011 130.944 106.784 130.814C108.46 130.532 110.18 130.907 111.588 131.861C112.995 132.815 113.981 134.274 114.342 135.936L114.531 136.905C114.553 137.014 114.551 137.127 114.527 137.236C114.502 137.345 114.455 137.447 114.388 137.537C114.321 137.626 114.236 137.7 114.139 137.754C114.041 137.808 113.933 137.841 113.822 137.85Z" fill="#0030AD"/>
<path d="M126.913 162.379H92.0936L91.8633 155.455H126.676L126.913 162.379Z" fill="#0030AD"/>
<path d="M110.115 123.163C110.126 123.415 110.085 123.667 109.995 123.904C109.905 124.14 109.768 124.355 109.593 124.537C109.417 124.719 109.206 124.863 108.973 124.961C108.74 125.058 108.49 125.108 108.237 125.106C107.717 125.102 107.217 124.898 106.842 124.537C106.468 124.175 106.246 123.683 106.223 123.163C106.213 122.91 106.254 122.659 106.344 122.422C106.434 122.186 106.57 121.971 106.746 121.789C106.922 121.607 107.132 121.463 107.365 121.365C107.598 121.267 107.849 121.218 108.101 121.22C108.623 121.222 109.123 121.426 109.498 121.788C109.873 122.15 110.094 122.642 110.115 123.163Z" fill="#263238"/>
<path d="M101.719 123.163C101.73 123.416 101.69 123.668 101.6 123.905C101.511 124.141 101.374 124.357 101.198 124.539C101.022 124.721 100.811 124.865 100.578 124.962C100.345 125.06 100.094 125.109 99.8408 125.106C99.3206 125.102 98.8219 124.898 98.4481 124.536C98.0742 124.174 97.8539 123.683 97.8326 123.163C97.8222 122.91 97.8632 122.659 97.9531 122.422C98.043 122.186 98.1798 121.971 98.3555 121.789C98.5311 121.607 98.7418 121.463 98.9747 121.365C99.2077 121.267 99.4581 121.218 99.7108 121.22C100.231 121.222 100.731 121.426 101.105 121.788C101.479 122.15 101.699 122.643 101.719 123.163Z" fill="#263238"/>
<path d="M93.3752 123.163C93.3856 123.415 93.3446 123.667 93.2548 123.904C93.1649 124.14 93.028 124.355 92.8524 124.537C92.6768 124.719 92.4661 124.863 92.2331 124.961C92.0001 125.058 91.7497 125.108 91.497 125.106C90.9764 125.103 90.4769 124.9 90.1027 124.538C89.7286 124.176 89.5087 123.683 89.4889 123.163C89.4785 122.91 89.5195 122.659 89.6093 122.422C89.6992 122.186 89.8361 121.971 90.0117 121.789C90.1873 121.607 90.398 121.463 90.631 121.365C90.864 121.267 91.1144 121.218 91.3671 121.22C91.8877 121.222 92.3872 121.426 92.7614 121.788C93.1355 122.15 93.3554 122.643 93.3752 123.163Z" fill="#263238"/>
<path d="M118.482 123.163C118.493 123.415 118.452 123.667 118.362 123.904C118.272 124.14 118.135 124.355 117.959 124.537C117.784 124.719 117.573 124.863 117.34 124.961C117.107 125.058 116.857 125.108 116.604 125.106C116.083 125.103 115.584 124.9 115.21 124.538C114.836 124.176 114.616 123.683 114.596 123.163C114.587 122.911 114.629 122.66 114.72 122.425C114.812 122.191 114.949 121.977 115.125 121.797C115.302 121.617 115.513 121.474 115.745 121.378C115.978 121.282 116.228 121.234 116.48 121.237C116.997 121.241 117.492 121.443 117.865 121.801C118.237 122.16 118.458 122.647 118.482 123.163Z" fill="#263238"/>
<path d="M126.849 123.163C126.86 123.416 126.82 123.668 126.73 123.905C126.641 124.141 126.504 124.357 126.328 124.539C126.152 124.721 125.941 124.865 125.708 124.962C125.474 125.06 125.224 125.109 124.971 125.106C124.45 125.102 123.952 124.898 123.578 124.536C123.204 124.174 122.984 123.683 122.963 123.163C122.952 122.91 122.993 122.659 123.083 122.422C123.173 122.186 123.31 121.971 123.485 121.789C123.661 121.607 123.872 121.463 124.105 121.365C124.338 121.267 124.588 121.218 124.841 121.22C125.361 121.222 125.861 121.426 126.235 121.788C126.609 122.15 126.829 122.643 126.849 123.163Z" fill="#263238"/>
<path d="M197.319 71.1846C198.104 72.4489 198.759 73.6541 199.432 74.9124C200.106 76.1708 200.714 77.4351 201.31 78.7289C202.527 81.3488 203.534 84.0611 204.321 86.8405C204.428 87.189 204.504 87.5612 204.593 87.9216L204.723 88.4711L204.788 88.7428L204.865 89.1918C204.998 90.2104 204.936 91.245 204.682 92.2403C204.274 93.7856 203.654 95.2669 202.839 96.6417C201.382 99.14 199.621 101.448 197.596 103.513L195.11 101.634C196.358 99.3388 197.468 96.9715 198.435 94.5444C198.865 93.475 199.168 92.3586 199.338 91.2182C199.392 90.87 199.376 90.5144 199.291 90.1725L199.055 89.4518C198.96 89.1564 198.871 88.861 198.759 88.5597C197.861 86.1224 196.822 83.7395 195.648 81.4229C194.467 79.0598 193.197 76.6966 191.928 74.4398L197.319 71.1846Z" fill="#FF8B7B"/>
<path d="M195.741 100.812L193.025 102.248L196.143 105.899C196.143 105.899 198.091 104.582 198.18 102.573L195.741 100.812Z" fill="#FF8B7B"/>
<path d="M189.383 104.499L192.719 107.152L196.144 105.899L193.026 102.248L189.383 104.499Z" fill="#FF8B7B"/>
<path d="M177.975 51.8538C177.91 52.1845 177.679 52.4149 177.467 52.3736C177.254 52.3322 177.13 52.0251 177.195 51.7002C177.26 51.3754 177.49 51.1096 177.709 51.1805C177.927 51.2514 178.04 51.523 177.975 51.8538Z" fill="#263238"/>
<path d="M177.71 52.4209C177.116 53.346 176.396 54.1847 175.572 54.9133C175.767 55.115 176.003 55.2722 176.264 55.3741C176.525 55.4761 176.805 55.5204 177.084 55.504L177.71 52.4209Z" fill="#FF5652"/>
<path d="M176.646 64.0123V60.1367L181.772 60.7275C181.772 60.7275 181.689 64.0596 178.819 65.0403L176.646 64.0123Z" fill="#FF8B7B"/>
<path d="M178.122 57.3486L181.73 58.3881L181.795 60.7566L176.67 60.1364L178.122 57.3486Z" fill="#FF8B7B"/>
<path opacity="0.2" d="M181.73 58.3884L178.123 57.3486L177.42 58.6956C177.458 59.757 177.79 60.787 178.378 61.6713C178.965 62.5557 179.787 63.2598 180.75 63.7055C181.37 62.8392 181.732 61.8151 181.795 60.7516L181.73 58.3884Z" fill="black"/>
<path d="M179.546 50.2768C179.584 50.2758 179.621 50.2641 179.653 50.2431C179.684 50.222 179.709 50.1925 179.724 50.1579C179.74 50.1233 179.745 50.0851 179.74 50.0476C179.734 50.0101 179.719 49.9749 179.694 49.9461C179.487 49.7118 179.226 49.5306 178.934 49.4175C178.642 49.3045 178.328 49.263 178.017 49.2964C177.966 49.305 177.92 49.3335 177.891 49.3756C177.861 49.4177 177.849 49.4699 177.857 49.5208C177.866 49.5721 177.894 49.6179 177.936 49.6488C177.978 49.6796 178.03 49.693 178.082 49.6862C178.328 49.662 178.577 49.6971 178.807 49.7885C179.037 49.88 179.242 50.0251 179.405 50.2118C179.423 50.2316 179.445 50.2475 179.469 50.2586C179.493 50.2698 179.52 50.276 179.546 50.2768Z" fill="#263238"/>
<path d="M187.092 57.833C186.501 60.8756 186.135 65.0879 188.273 67.1143C188.273 67.1143 187.446 70.1982 181.778 70.1982C175.572 70.1982 178.796 67.4924 178.796 67.4924C181.376 66.6889 181.353 63.7527 180.762 61.3896L187.092 57.833Z" fill="#FF8B7B"/>
<path d="M189.424 69.1469C189.979 68.3671 189.955 65.8917 189.365 65.4545C188.414 64.7515 184.334 64.586 178.849 65.8503C179.439 68.2489 178.17 69.5014 178.17 69.5014L189.424 69.1469Z" fill="#0030AD"/>
<path d="M207.881 209.405C207.713 209.465 207.534 209.49 207.356 209.48C207.177 209.47 207.003 209.424 206.842 209.346C206.781 209.29 206.739 209.215 206.722 209.134C206.705 209.053 206.714 208.968 206.747 208.892C206.766 208.828 206.798 208.769 206.842 208.719C206.886 208.669 206.94 208.629 207.001 208.602C207.562 208.33 208.85 208.856 208.909 208.88C208.927 208.887 208.942 208.899 208.952 208.915C208.963 208.931 208.968 208.949 208.968 208.968C208.968 208.987 208.963 209.006 208.954 209.022C208.944 209.039 208.931 209.053 208.915 209.063C208.582 209.209 208.236 209.324 207.881 209.405ZM207.202 208.738C207.163 208.747 207.126 208.761 207.09 208.779C207.053 208.793 207.02 208.815 206.993 208.844C206.967 208.872 206.947 208.907 206.936 208.945C206.883 209.122 206.936 209.181 206.972 209.199C207.196 209.388 208.023 209.199 208.608 208.98C208.163 208.796 207.683 208.713 207.202 208.738Z" fill="#0030AD"/>
<path d="M208.891 209.069H208.844C208.371 208.933 207.367 208.218 207.355 207.752C207.355 207.677 207.38 207.605 207.426 207.547C207.472 207.489 207.537 207.449 207.609 207.433C207.679 207.406 207.754 207.396 207.829 207.402C207.904 207.408 207.976 207.431 208.041 207.468C208.596 207.752 208.95 208.897 208.962 208.95C208.97 208.965 208.975 208.981 208.975 208.998C208.975 209.014 208.97 209.031 208.962 209.045C208.953 209.054 208.942 209.061 208.929 209.065C208.917 209.069 208.904 209.071 208.891 209.069ZM207.71 207.598H207.663C207.544 207.639 207.544 207.698 207.544 207.728C207.544 208.005 208.218 208.567 208.726 208.791C208.602 208.46 208.33 207.805 207.97 207.61C207.89 207.573 207.799 207.569 207.716 207.598H207.71Z" fill="#0030AD"/>
<path d="M177.213 210.102C176.682 210.102 176.168 210.025 175.997 209.789C175.952 209.726 175.928 209.651 175.928 209.574C175.928 209.496 175.952 209.421 175.997 209.358C176.03 209.3 176.075 209.25 176.129 209.21C176.183 209.171 176.244 209.143 176.31 209.128C177.001 208.939 178.454 209.766 178.513 209.801C178.531 209.81 178.545 209.825 178.554 209.843C178.562 209.861 178.565 209.882 178.56 209.901C178.558 209.922 178.549 209.941 178.535 209.955C178.521 209.97 178.503 209.98 178.483 209.984C178.064 210.061 177.639 210.1 177.213 210.102ZM176.558 209.293C176.495 209.283 176.431 209.283 176.369 209.293C176.329 209.301 176.291 209.318 176.257 209.341C176.224 209.364 176.195 209.394 176.174 209.429C176.103 209.553 176.132 209.612 176.174 209.647C176.369 209.919 177.414 209.925 178.188 209.813C177.683 209.537 177.129 209.36 176.558 209.293Z" fill="#0030AD"/>
<path d="M178.478 209.984H178.436C177.934 209.76 176.942 208.862 177.019 208.39C177.019 208.278 177.113 208.142 177.385 208.118C177.482 208.107 177.581 208.116 177.674 208.144C177.768 208.172 177.854 208.22 177.928 208.283C178.307 208.736 178.534 209.296 178.578 209.884C178.578 209.901 178.574 209.918 178.567 209.933C178.56 209.948 178.55 209.962 178.537 209.973C178.519 209.982 178.498 209.986 178.478 209.984ZM177.462 208.301H177.403C177.226 208.301 177.214 208.384 177.214 208.408C177.167 208.691 177.84 209.4 178.354 209.707C178.309 209.233 178.117 208.785 177.804 208.425C177.707 208.343 177.583 208.298 177.456 208.301H177.462Z" fill="#0030AD"/>
<path d="M183.035 209.891H178.884L178.471 200.267H182.622L183.035 209.891Z" fill="#FF8B7B"/>
<path d="M213.52 207.964L209.464 208.844L205.384 199.882L209.446 199.002L213.52 207.964Z" fill="#FF8B7B"/>
<path d="M209.068 208.437L213.632 207.45C213.712 207.433 213.795 207.444 213.868 207.48C213.941 207.517 214 207.577 214.034 207.651L215.616 211.089C215.658 211.173 215.68 211.265 215.68 211.358C215.68 211.451 215.657 211.543 215.615 211.626C215.572 211.709 215.51 211.781 215.435 211.836C215.359 211.89 215.272 211.926 215.179 211.94C213.585 212.253 212.788 212.33 210.786 212.761C209.552 213.033 206.765 213.713 205.059 214.079C203.353 214.445 202.768 212.809 203.435 212.507C206.417 211.143 207.657 209.943 208.466 208.827C208.612 208.627 208.826 208.489 209.068 208.437Z" fill="#263238"/>
<path d="M178.914 209.405H183.449C183.531 209.406 183.611 209.434 183.675 209.486C183.739 209.537 183.784 209.609 183.803 209.689L184.624 213.381C184.648 213.471 184.651 213.564 184.632 213.655C184.613 213.745 184.574 213.83 184.516 213.903C184.459 213.975 184.385 214.033 184.301 214.072C184.217 214.11 184.126 214.129 184.033 214.126C182.398 214.096 180.036 214.002 177.981 214.002C175.572 214.002 173.5 214.132 170.677 214.132C168.971 214.132 168.498 212.406 169.213 212.247C172.46 211.538 175.117 211.461 177.922 209.73C178.217 209.533 178.56 209.42 178.914 209.405Z" fill="#263238"/>
<path d="M195.7 68.0652C199.592 68.9573 202.786 78.9002 202.786 78.9002L195.01 84.8495C192.991 82.6902 191.567 80.0439 190.876 77.1692C189.501 71.9585 191.721 67.1435 195.7 68.0652Z" fill="#0030AD"/>
<path opacity="0.4" d="M195.7 68.0652C199.592 68.9573 202.786 78.9002 202.786 78.9002L195.01 84.8495C192.991 82.6902 191.567 80.0439 190.876 77.1692C189.501 71.9585 191.721 67.1435 195.7 68.0652Z" fill="black"/>
<path d="M175.229 79.9225C174.261 80.9682 173.293 81.9016 172.277 82.8764C171.775 83.3491 171.267 83.8217 170.748 84.2766L169.963 84.9678L169.768 85.1392L169.431 85.4109C169.085 85.6878 168.701 85.9146 168.292 86.0844C167.836 86.278 167.346 86.3784 166.851 86.3798C166.428 86.3816 166.008 86.3076 165.611 86.1612C165.171 85.9935 164.769 85.7382 164.43 85.4109C163.997 84.9879 163.68 84.4611 163.509 83.8808C163.419 83.5947 163.362 83.2994 163.338 83.0005C163.307 82.6507 163.307 82.2988 163.338 81.9489C163.367 81.6653 163.403 81.4172 163.45 81.1868C163.611 80.3812 163.841 79.5907 164.135 78.8236C164.4 78.0945 164.706 77.3805 165.05 76.685C165.428 75.9347 165.788 75.3852 166.148 74.759C167.611 72.3611 169.281 70.0957 171.138 67.9886C172.976 65.8939 175.002 63.9717 177.19 62.2461L179.363 64.4852C177.839 66.5293 176.339 68.7211 174.952 70.8775C173.571 73.0217 172.309 75.2405 171.173 77.5239C170.919 78.0792 170.583 78.7055 170.423 79.1545C170.212 79.6761 170.029 80.2085 169.874 80.7496C169.725 81.2369 169.613 81.7345 169.537 82.2384C169.533 82.3171 169.533 82.396 169.537 82.4747C169.537 82.522 169.537 82.5456 169.537 82.4215C169.528 82.2889 169.502 82.158 169.461 82.0316C169.333 81.6128 169.099 81.2342 168.782 80.9327C168.499 80.6732 168.168 80.4723 167.807 80.342C167.49 80.2218 167.154 80.1598 166.815 80.1588C166.489 80.1549 166.166 80.2172 165.865 80.342C165.763 80.3836 165.664 80.433 165.57 80.4897L165.794 80.2829L166.508 79.633L167.92 78.3096C168.852 77.4294 169.791 76.49 170.677 75.6156L175.229 79.9225Z" fill="#FF8B7B"/>
<path opacity="0.2" d="M192.365 75.3672C194.479 77.4586 195.169 81.2751 195.317 84.5835L194.975 84.8494C192.956 82.69 191.532 80.0438 190.841 77.1691C190.765 76.8619 190.694 76.5783 190.641 76.2416L192.365 75.3672Z" fill="black"/>
<path d="M171.102 72.2008C170.252 76.6908 169.721 85.913 172.183 104.168H194.419C194.573 100.759 192.429 84.1111 195.718 68.0357C193.261 67.5636 190.776 67.2498 188.279 67.0963C185.132 66.9158 181.978 66.9158 178.831 67.0963C177.792 67.1909 176.765 67.3445 175.879 67.504C174.701 67.7108 173.614 68.2705 172.761 69.1092C171.908 69.9479 171.329 71.026 171.102 72.2008Z" fill="#0030AD"/>
<path opacity="0.4" d="M171.102 72.2008C170.252 76.6908 169.721 85.913 172.183 104.168H194.419C194.573 100.759 192.429 84.1111 195.718 68.0357C193.261 67.5636 190.776 67.2498 188.279 67.0963C185.132 66.9158 181.978 66.9158 178.831 67.0963C177.792 67.1909 176.765 67.3445 175.879 67.504C174.701 67.7108 173.614 68.2705 172.761 69.1092C171.908 69.9479 171.329 71.026 171.102 72.2008Z" fill="black"/>
<path opacity="0.2" d="M174.503 78.8595L170.488 77.8965C170.364 80.3305 170.352 83.3436 170.529 87.0714C172.377 84.9682 174.739 81.6834 174.503 78.8595Z" fill="black"/>
<path opacity="0.2" d="M178.471 200.267L178.683 205.229H182.84L182.627 200.267H178.471Z" fill="black"/>
<path opacity="0.2" d="M209.446 199.002L205.384 199.882L207.486 204.502L211.548 203.622L209.446 199.002Z" fill="black"/>
<path d="M189.064 53.3906C188.001 57.3725 187.576 59.7593 185.12 61.4135C181.429 63.9303 176.824 61.0472 176.706 56.8408C176.576 53.042 178.341 47.1637 182.61 46.3602C183.549 46.184 184.516 46.2498 185.422 46.5513C186.327 46.8528 187.141 47.38 187.787 48.0834C188.433 48.7868 188.889 49.6431 189.112 50.5716C189.336 51.5001 189.319 52.4702 189.064 53.3906Z" fill="#FF8B7B"/>
<path d="M179.746 53.5375C179.546 53.0057 178.63 48.8879 179.492 47.8186C180.355 46.7493 190.186 47.5232 191.638 48.9529C194.053 51.3161 192.376 53.4429 189.737 56.1783C187.753 58.2342 187.676 60.5501 186.672 60.9046C184.901 61.4954 182.197 60.94 181.654 59.0672C181.11 57.1944 179.746 53.5375 179.746 53.5375Z" fill="#263238"/>
<path d="M190.445 44.2684C186.973 42.7914 180.461 44.4279 176.942 43.5771C176.897 44.8864 177.327 46.1677 178.153 47.1842C178.979 48.2007 180.145 48.8837 181.435 49.1069C184.354 49.6636 187.32 49.9386 190.292 49.9281C194.153 49.7509 193.398 45.5268 190.445 44.2684Z" fill="#263238"/>
<path d="M190.988 49.0769C192.257 49.2017 193.535 48.9576 194.668 48.374C195.318 49.9451 191.744 50.3762 190.988 49.0769Z" fill="#263238"/>
<path d="M181.637 53.7032C181.557 54.7277 181.142 55.6974 180.455 56.4621C179.546 57.4606 178.601 56.8343 178.441 55.6232C178.299 54.5244 178.595 52.6693 179.705 52.1376C180.816 51.6059 181.713 52.4684 181.637 53.7032Z" fill="#FF8B7B"/>
<path d="M180.065 104.187C180.065 104.187 184.789 135.942 187.369 147.84C190.198 160.867 205.396 203.965 205.396 203.965L212.83 202.352C212.83 202.352 202.202 167.224 199.84 149.01C198.009 135.02 194.413 104.175 194.413 104.175L180.065 104.187Z" fill="#0030AD"/>
<path d="M203.613 201.489C203.583 201.489 205 204.183 205 204.183L213.361 202.369L212.659 199.853L203.613 201.489Z" fill="#263238"/>
<path opacity="0.3" d="M183.047 115.5C188.497 116.569 187.919 136.904 187.263 147.367C185.693 139.97 183.39 125.744 181.819 115.647C182.2 115.459 182.633 115.407 183.047 115.5Z" fill="black"/>
<path d="M172.182 104.186C172.182 104.186 171.592 135.255 172.064 147.904C172.536 161.085 177.136 204.242 177.136 204.242H184.174C184.174 204.242 184.428 161.853 184.765 148.908C185.107 134.8 186.808 104.162 186.808 104.162L172.182 104.186Z" fill="#0030AD"/>
<path d="M175.784 201.466C175.749 201.466 176.18 204.384 176.18 204.384H184.736L184.972 201.779L175.784 201.466Z" fill="#263238"/>
<path d="M179.805 73.5837C181.795 78.954 170.098 85.2813 170.098 85.2813L165.032 78.7826C165.032 78.7826 168.439 72.0358 172.572 68.9992C177.68 65.2536 178.288 69.4954 179.805 73.5837Z" fill="#0030AD"/>
<path opacity="0.4" d="M179.805 73.5837C181.795 78.954 170.098 85.2813 170.098 85.2813L165.032 78.7826C165.032 78.7826 168.439 72.0358 172.572 68.9992C177.68 65.2536 178.288 69.4954 179.805 73.5837Z" fill="black"/>
<path d="M225.637 32.813C237.405 32.813 246.946 26.7294 246.946 19.2249C246.946 11.7203 237.405 5.63672 225.637 5.63672C213.868 5.63672 204.327 11.7203 204.327 19.2249C204.327 26.7294 213.868 32.813 225.637 32.813Z" fill="#0030AD"/>
<path d="M217.949 26.0663C216.545 26.0618 215.188 25.5624 214.115 24.6559C213.043 23.7494 212.324 22.4937 212.086 21.1096C211.851 19.6103 212.189 18.0776 213.032 16.8164C213.876 15.5552 215.163 14.6581 216.638 14.3037C217.848 14.0247 219.115 14.1322 220.261 14.6112C221.407 15.0902 222.374 15.9166 223.027 16.9741L236.707 14.1501C237.233 14.0349 237.783 14.1224 238.247 14.3951C238.711 14.6678 239.055 15.1056 239.211 15.6212C239.283 15.8922 239.298 16.175 239.257 16.4523C239.215 16.7296 239.118 16.9955 238.97 17.2338C238.823 17.4722 238.628 17.6779 238.399 17.8384C238.169 17.9989 237.909 18.1109 237.634 18.1675L237.28 18.2384C237.228 18.2478 237.178 18.2692 237.135 18.301C237.092 18.3328 237.057 18.374 237.032 18.4215C237.01 18.4698 236.999 18.5221 236.999 18.5751C236.999 18.6281 237.01 18.6805 237.032 18.7287L237.274 19.355C237.355 19.5579 237.363 19.7829 237.296 19.991C237.23 20.1991 237.092 20.3774 236.908 20.4952C236.763 20.5849 236.64 20.7066 236.549 20.8509C236.458 20.9953 236.401 21.1585 236.383 21.3282C236.365 21.523 236.287 21.7072 236.159 21.8547C236.03 22.0022 235.859 22.1053 235.668 22.1494L235.391 22.2085C235.198 22.244 235 22.2174 234.823 22.1324C234.647 22.0475 234.503 21.9086 234.411 21.7358C234.288 21.5298 234.104 21.3671 233.885 21.2705C233.666 21.1739 233.422 21.1483 233.187 21.197C232.952 21.2458 232.739 21.3666 232.576 21.5426C232.413 21.7186 232.309 21.9411 232.279 22.1789C232.263 22.3724 232.185 22.5557 232.058 22.7023C231.93 22.8488 231.76 22.9511 231.57 22.9942L231.293 23.0533C231.101 23.0879 230.902 23.0609 230.726 22.976C230.55 22.8911 230.406 22.7528 230.313 22.5807C230.224 22.4341 230.105 22.3086 229.963 22.2127C229.822 22.1168 229.661 22.0529 229.492 22.0253C229.265 21.998 229.056 21.8887 228.904 21.7179C228.751 21.5471 228.667 21.3266 228.665 21.0978V20.4243C228.663 20.3716 228.649 20.3201 228.625 20.2732C228.601 20.2263 228.567 20.1852 228.526 20.1526C228.484 20.1201 228.436 20.0969 228.385 20.0847C228.334 20.0724 228.28 20.0714 228.228 20.0816L223.865 20.9796C223.687 22.1892 223.141 23.3145 222.301 24.2025C221.461 25.0904 220.368 25.6979 219.171 25.9423C218.769 26.0245 218.359 26.0661 217.949 26.0663ZM216.768 14.8413C215.429 15.1543 214.258 15.9634 213.491 17.1057C212.724 18.2479 212.418 19.6385 212.635 20.9974C212.867 22.2616 213.544 23.4009 214.542 24.2092C215.541 25.0175 216.796 25.4415 218.08 25.4044C219.364 25.3672 220.593 24.8715 221.543 24.0068C222.494 23.1422 223.104 21.9657 223.263 20.6901V20.4775L228.075 19.5027C228.213 19.4692 228.357 19.467 228.496 19.4961C228.635 19.5252 228.766 19.5849 228.879 19.6709C228.992 19.7569 229.084 19.867 229.15 19.9932C229.215 20.1195 229.251 20.2586 229.256 20.4007V21.0742C229.257 21.1543 229.286 21.2316 229.338 21.293C229.389 21.3543 229.461 21.396 229.539 21.4109C229.797 21.4479 230.044 21.5432 230.26 21.6896C230.475 21.8359 230.655 22.0296 230.785 22.2557C230.816 22.3195 230.867 22.3719 230.929 22.4058C230.992 22.4397 231.063 22.4533 231.134 22.4448L231.405 22.3857C231.474 22.368 231.535 22.3285 231.58 22.2732C231.625 22.2178 231.65 22.1496 231.653 22.0785C231.69 21.7107 231.843 21.3643 232.09 21.0893C232.337 20.8143 232.665 20.625 233.027 20.5487C233.388 20.4724 233.765 20.5131 234.101 20.6649C234.438 20.8167 234.718 21.0718 234.901 21.3932C234.931 21.4565 234.98 21.5087 235.042 21.5426C235.103 21.5765 235.173 21.5903 235.243 21.5822L235.526 21.5232C235.594 21.5044 235.654 21.4644 235.698 21.4092C235.741 21.3539 235.766 21.2863 235.769 21.2159C235.798 20.9566 235.886 20.7073 236.026 20.4871C236.166 20.267 236.355 20.0818 236.577 19.9458C236.643 19.8988 236.69 19.8314 236.713 19.7544C236.735 19.6773 236.731 19.595 236.701 19.5204L236.459 18.8941C236.409 18.765 236.388 18.6266 236.397 18.4884C236.406 18.3502 236.445 18.2156 236.511 18.0941C236.578 17.9726 236.67 17.867 236.781 17.7848C236.893 17.7026 237.021 17.6457 237.156 17.618L237.516 17.5412C237.711 17.4997 237.896 17.4192 238.059 17.3046C238.222 17.19 238.36 17.0436 238.466 16.8743C238.571 16.705 238.641 16.5161 238.672 16.3191C238.702 16.1221 238.693 15.9209 238.644 15.7275C238.529 15.3557 238.277 15.0413 237.94 14.8473C237.603 14.6534 237.205 14.5943 236.825 14.6818L222.761 17.6062L222.655 17.4231C222.09 16.4165 221.212 15.6214 220.156 15.1577C219.099 14.6941 217.92 14.5872 216.797 14.8531L216.768 14.8413ZM217.949 23.8686C217.215 23.8768 216.495 23.6715 215.876 23.2778C215.144 22.7968 214.601 22.0767 214.34 21.2401C214.079 20.4035 214.117 19.5022 214.446 18.69C214.774 17.8778 215.375 17.2048 216.144 16.7859C216.913 16.3669 217.804 16.2279 218.664 16.3926C219.525 16.5572 220.301 17.0153 220.862 17.6887C221.422 18.3622 221.732 19.2093 221.738 20.0856C221.744 20.962 221.446 21.8133 220.895 22.4945C220.344 23.1758 219.574 23.6447 218.716 23.8213C218.465 23.8668 218.21 23.8866 217.955 23.8804L217.949 23.8686ZM217.949 16.8914C217.729 16.8926 217.509 16.9144 217.293 16.9564C216.882 17.044 216.492 17.2119 216.145 17.4504C215.799 17.6889 215.503 17.9934 215.274 18.3464C215.045 18.6994 214.888 19.0941 214.811 19.5079C214.735 19.9217 214.741 20.3465 214.828 20.7581C214.916 21.1697 215.084 21.5599 215.322 21.9066C215.56 22.2533 215.865 22.5497 216.217 22.7787C216.57 23.0078 216.965 23.165 217.378 23.2415C217.792 23.318 218.216 23.3123 218.628 23.2246C219.245 23.096 219.811 22.7873 220.253 22.3375C220.696 21.8877 220.995 21.3169 221.114 20.6971C221.233 20.0773 221.165 19.4362 220.92 18.8546C220.676 18.273 220.264 17.7769 219.738 17.429C219.215 17.0811 218.6 16.898 217.972 16.9032L217.949 16.8914Z" fill="white"/>
<path opacity="0.6" d="M208.295 40.7823C212.162 40.7823 215.298 38.7827 215.298 36.316C215.298 33.8493 212.162 31.8496 208.295 31.8496C204.427 31.8496 201.292 33.8493 201.292 36.316C201.292 38.7827 204.427 40.7823 208.295 40.7823Z" fill="#0030AD"/>
<path opacity="0.3" d="M197.153 42.6131C198.741 42.6131 200.028 41.7933 200.028 40.7821C200.028 39.7709 198.741 38.9512 197.153 38.9512C195.565 38.9512 194.277 39.7709 194.277 40.7821C194.277 41.7933 195.565 42.6131 197.153 42.6131Z" fill="#0030AD"/>
</svg>
